<svg xmlns="http://www.w3.org/2000/svg" width="22.031" height="17.875"><path d="M21.514 2.058a8.491 8.491 0 0 1-1.064.385 4.653 4.653 0 0 0 .958-1.671.35.35 0 0 0-.117-.383.355.355 0 0 0-.4-.027 8.4 8.4 0 0 1-2.476.97 4.774 4.774 0 0 0-3.307-1.336 4.71 4.71 0 0 0-4.724 4.686 4.837 4.837 0 0 0 .039.6 12.119 12.119 0 0 1-8.3-4.367.356.356 0 0 0-.582.045 4.661 4.661 0 0 0 .485 5.394 4.162 4.162 0 0 1-.633-.281.358.358 0 0 0-.349 0 .35.35 0 0 0-.177.3v.063a4.692 4.692 0 0 0 2.308 4.033 3.648 3.648 0 0 1-.359-.051.358.358 0 0 0-.333.112.351.351 0 0 0-.072.341 4.706 4.706 0 0 0 3.461 3.141 8.408 8.408 0 0 1-4.467 1.264 8.774 8.774 0 0 1-1-.057.351.351 0 0 0-.233.645 12.816 12.816 0 0 0 6.888 2 12.291 12.291 0 0 0 9.5-4.137 13.045 13.045 0 0 0 3.291-8.545q0-.193-.006-.387a9.165 9.165 0 0 0 2.114-2.221.35.35 0 0 0-.024-.422.357.357 0 0 0-.421-.094z" fill="#3aaae3" fill-rule="evenodd"/></svg>